<svg width="17" height="16" viewBox="0 0 17 16" fill="none" xmlns="http://www.w3.org/2000/svg">
<path d="M12.6779 7.38649C12.9778 7.13927 14.7097 6.06798 15.6581 5.16556C16.3984 4.46037 16.6848 2.61905 15.546 1.72339C14.0653 0.560233 12.6442 1.78148 12.6442 1.78148C12.6442 1.78148 12.5199 1.09115 11.6553 0.685869C10.5664 0.175217 9.18712 -0.0152643 7.9186 0.000946863C6.68925 0.0158071 5.55717 0.16441 4.55207 0.6575C3.65235 1.09925 3.59832 1.72879 3.59832 1.72879C3.59832 1.72879 2.4176 0.600761 0.970753 1.51669C-0.474745 2.43398 -0.0600085 4.27124 0.635722 5.04262C1.5422 6.04772 2.63105 6.55972 3.12549 6.92988C3.61858 7.30003 4.09141 7.65263 4.09141 7.97009C4.09141 8.28756 3.95091 8.35781 3.89687 8.34025C3.84419 8.32269 3.75097 8.01332 3.50915 8.14572C3.17953 8.32809 3.2795 9.063 3.96712 9.13325C4.63313 9.20214 4.76012 8.49831 4.76012 8.49831L4.86549 7.81068L5.95839 8.56856L7.15667 9.55609L7.12155 10.4018C7.12155 10.4018 7.06886 11.0543 6.75139 11.619C6.43392 12.1837 5.92327 12.747 5.92327 12.747L5.90706 13.2576L10.3503 13.1523L10.2098 12.6592C10.2098 12.6592 9.63698 12.0296 9.29249 11.3542C9.04662 10.8705 9.00745 10.3829 9.00745 10.3829L8.99664 9.16972L11.3027 7.75665C11.3027 7.75665 11.5499 7.95118 11.5148 8.02143C11.4797 8.09168 11.4715 8.81172 12.0254 9.07921C12.5726 9.34399 13.013 9.00896 12.9603 8.54964C12.9076 8.09168 12.6252 8.24974 12.5374 8.31999C12.4496 8.39023 12.2551 8.4078 12.2024 8.14301C12.1484 7.88093 12.378 7.63371 12.6779 7.38649ZM1.32605 4.89267L0.797834 3.28506L1.43682 2.44884L2.15282 2.23944C2.15282 2.23944 3.0674 2.92166 3.09982 2.97705C3.13224 3.03244 3.68342 4.16587 3.68342 4.16587L4.41023 6.79749L1.32605 4.89267ZM11.7093 7.00688C11.7201 6.95149 12.3915 4.18748 12.3915 4.18748C12.3915 4.15506 12.8644 3.93486 12.8644 3.89028C12.8644 3.8457 13.7236 2.44748 13.7236 2.44748L15.1555 2.50287L15.4527 3.9227L14.7368 5.10071C14.7381 5.10207 11.6985 7.06092 11.7093 7.00688Z" fill="#FEC417"/>
<path d="M15.7583 3.50794C15.6529 2.24888 14.4074 1.94762 13.8954 2.12999C13.3834 2.31237 13.051 2.65416 12.9376 3.14049C12.8457 3.53361 12.7538 3.79569 12.6485 3.83622C12.5323 3.87945 12.4256 3.86189 12.4256 3.86189C12.4256 3.86189 12.4066 3.0108 12.4121 2.66767C12.4256 1.95978 12.6417 1.77875 12.6417 1.77875C12.6417 1.77875 12.5958 1.53964 12.5039 1.40725C12.4121 1.27621 12.2418 1.10599 12.2418 1.10599C12.2418 1.10599 12.281 1.44642 12.1108 1.52613C11.9406 1.60583 11.7569 1.48695 11.7569 1.48695L11.9271 2.19484C11.9271 2.19484 11.6515 5.72347 11.6258 5.80183C11.6001 5.88018 10.564 7.67692 10.564 7.67692C10.564 7.67692 9.96011 8.24161 9.67236 8.37265C9.38326 8.50369 9.13469 8.84548 8.02017 8.85764C6.90565 8.87115 5.94784 7.99169 5.94784 7.99169L4.99003 7.07305L4.28214 4.98722L4.17677 2.8622L4.22135 2.08947L4.25242 1.76659L4.20244 1.60313C4.20244 1.60313 4.11057 1.69499 3.94036 1.65582C3.77014 1.61664 3.70394 1.39374 3.70394 1.39374C3.70394 1.39374 3.63775 1.49911 3.62559 1.5518C3.61208 1.60448 3.59857 1.72607 3.59857 1.72607C3.59857 1.72607 3.7823 1.91925 3.82148 2.19484C3.86065 2.47043 3.80797 3.61197 3.61208 3.58495C3.41484 3.55928 3.47969 2.60147 2.73262 2.23402C2.08553 1.9152 1.11961 2.01111 0.725139 2.81086C0.332018 3.61062 0.619766 4.55492 1.85317 5.43437C3.08657 6.31383 4.39967 7.05279 4.60772 7.75798C4.85629 8.59691 4.29295 9.0954 4.29295 9.0954C4.29295 9.0954 4.70228 9.03866 4.90357 8.59961C4.96842 8.45776 4.99273 8.25107 5.00219 8.12813C5.46826 8.73605 6.08834 9.25076 6.90971 9.49933C7.22042 9.60605 7.57031 9.66009 8.05665 9.66009C8.1269 9.66009 8.19579 9.65739 8.26469 9.65469C8.83343 9.63442 9.31977 9.5277 9.79124 9.29399C10.4275 8.99948 10.9206 8.54962 11.3016 8.03897C11.2908 8.16055 11.3651 8.46316 11.5069 8.70228C11.7555 9.12242 12.1756 9.14809 12.1756 9.14809C12.1756 9.14809 11.5988 8.80765 11.7163 7.99439C11.8339 7.18113 12.3715 6.89203 13.1848 6.36787C14.0007 5.84236 15.8623 4.76701 15.7583 3.50794ZM2.43137 5.29253C2.06526 5.0345 1.42357 4.69001 1.15879 4.1645C0.806195 3.46336 1.09259 2.61633 1.76265 2.51231C3.15411 2.29346 3.17978 4.0213 3.27165 4.23069C3.36351 4.44009 3.62559 4.4536 3.62559 4.4536C3.62559 4.4536 3.63505 4.56978 3.67287 4.79403C3.67422 4.80079 3.67557 4.80619 3.67557 4.81295L3.67963 4.83321C3.7053 4.98586 3.74177 5.17635 3.79311 5.39385L3.79716 5.41006C3.82553 5.53299 3.85525 5.64917 3.88632 5.7559C3.94846 5.98015 4.02412 6.22197 4.11733 6.47054C3.98224 6.37868 3.20815 5.84236 2.43137 5.29253ZM15.0369 4.32121C14.7465 4.79133 14.1588 5.14122 13.7252 5.43572C13.1659 5.81534 12.3337 6.38543 12.0986 6.54484C12.1527 6.40164 12.2 6.25979 12.2432 6.12065C12.3134 5.93692 12.3877 5.71267 12.4391 5.47085C12.5742 4.83591 12.5971 4.28068 12.5971 4.28068C12.5971 4.28068 12.8727 4.35903 13.0429 4.17531C13.2132 3.99158 13.2766 3.42149 13.4361 3.15265C13.6846 2.73251 14.1831 2.30021 14.9315 2.82437C15.3638 3.12833 15.3801 3.76462 15.0369 4.32121ZM7.73378 10.0829L8.49705 10.0735C8.49705 10.0735 8.51732 10.907 8.63755 11.5284C8.75778 12.1512 8.91854 12.8429 8.91854 12.8429C8.91854 12.8429 7.36362 13.3643 7.37308 12.8024C7.38253 12.2404 7.61354 11.1461 7.61354 11.1461C7.61354 11.1461 7.75404 9.84247 7.73378 10.0829Z" fill="#FFA828"/>
<path d="M6.45295 1.42071C6.45295 1.42071 7.30268 1.3248 8.09298 1.33696C8.88327 1.34912 9.69654 1.50447 9.69654 1.50447C9.69654 1.50447 9.64925 4.1496 9.5047 5.63427C9.3615 7.11895 8.79952 8.23076 8.64956 8.54553C8.50501 8.85084 8.39964 9.0143 8.39964 9.0143L7.63772 8.92514L6.32056 6.28002L6.45295 1.42071Z" fill="#FFA828"/>
<path d="M5.43557 1.81657C5.43557 1.81657 5.67469 1.69634 6.02187 1.5653C6.33664 1.44642 6.62034 1.40994 6.62034 1.40994C6.62034 1.40994 6.62844 3.16345 6.65681 4.41442C6.68113 5.4803 7.0756 7.22706 7.26743 7.69448C7.45927 8.1619 7.80511 8.87519 7.80511 8.87519C7.80511 8.87519 7.10938 8.77522 6.68113 8.23215C6.45552 7.94575 5.40045 5.73022 5.36397 4.26987C5.3275 2.80951 5.47069 1.7801 5.43557 1.81657Z" fill="#FFEFAB"/>
<path d="M5.03985 2.01919C5.01553 2.09079 4.82505 3.59978 5.12361 4.99935C5.42216 6.39891 5.86392 7.35673 6.15572 7.73634C6.4151 8.07272 6.58396 8.23213 6.67988 8.23213C6.7758 8.23213 6.28541 7.07168 6.0571 6.16115C5.83014 5.25197 5.70991 4.16177 5.68559 3.6241C5.66128 3.08508 5.63831 1.69632 5.63831 1.69632C5.63831 1.69632 5.37488 1.81655 5.31544 1.85168C5.256 1.88815 5.03985 2.01919 5.03985 2.01919Z" fill="#FFFCFD"/>
<path d="M6.76379 12.7443C6.76379 12.7443 7.2785 11.9067 7.38657 11.2718C7.49465 10.6368 7.55409 10.0748 7.55409 10.0748L7.87291 10.0883C7.87291 10.0883 7.84184 11.0083 7.80536 11.6311C7.76889 12.2539 7.66216 12.8645 7.66216 12.8645L6.76379 12.7443Z" fill="#FFEFAB"/>
<path d="M7.15951 9.55605C7.15951 9.55605 7.39863 9.32234 8.05653 9.32234C8.71444 9.32234 8.99678 9.57497 8.99678 9.57497L9.01434 10.3869C9.01434 10.3869 8.57664 10.2504 8.04437 10.2437C7.60127 10.2383 7.12439 10.4031 7.12439 10.4031L7.15951 9.55605ZM4.28608 1.49234C4.39686 1.38967 5.45869 0.592619 7.97277 0.571004C10.6773 0.546687 11.6919 1.33023 11.7554 1.37346C11.827 1.42074 11.9107 1.63689 11.8756 1.73281C11.8391 1.82872 11.7675 1.86385 11.5649 1.78009C11.3609 1.69633 10.3558 0.962774 7.93765 1.03843C5.6154 1.11003 4.63057 1.81656 4.52655 1.876C4.44279 1.92329 4.28743 1.93545 4.21583 1.83953C4.14288 1.74496 4.21448 1.55989 4.28608 1.49234ZM11.8756 2.05568C11.5649 2.08 11.7797 4.58192 11.1218 6.149C10.4166 7.82551 9.51689 8.30374 9.55337 8.39966C9.58984 8.49557 10.4706 8.22944 11.0259 7.44184C11.5406 6.71234 11.8513 6.06524 11.9959 5.20335C12.1377 4.34146 12.2215 2.02866 11.8756 2.05568ZM4.21988 2.34208C4.14153 2.33802 4.22124 3.58628 4.09425 4.13476C4.04562 4.34551 3.92673 4.38874 3.91457 4.43602C3.90242 4.4833 4.1753 6.08956 4.63327 6.79475C5.07638 7.47697 5.95043 8.32671 6.09363 8.18351C6.23683 8.04031 5.45869 7.56073 4.93318 6.51916C4.63057 5.92205 4.32256 5.02233 4.3104 3.99292C4.30229 3.31205 4.3874 2.35153 4.21988 2.34208Z" fill="#D1701C"/>
<path d="M11.2797 14.595L11.2783 12.6646H5.08161C5.10052 12.6646 5.08566 14.2343 5.08296 14.6018H4.20215V16H12.0713V14.6018L11.2797 14.595Z" fill="#865C50"/>
<path d="M7.06762 13.6791C6.91496 13.6723 6.73934 13.7034 6.73258 13.8925C6.72583 14.0817 6.72583 14.6288 6.72583 14.7328C6.72583 14.8369 6.81094 14.9274 7.02439 14.9341C7.23783 14.9409 9.24127 14.9341 9.38176 14.9341C9.52226 14.9341 9.59521 14.8125 9.60061 14.6909C9.60737 14.5694 9.59386 14.0574 9.59386 13.9182C9.59386 13.6872 9.38717 13.6872 9.24667 13.6872C9.09537 13.6845 7.06762 13.6791 7.06762 13.6791Z" fill="#FCC219"/>
</svg>
