<svg width="16" height="17" viewBox="0 0 16 17" fill="none" xmlns="http://www.w3.org/2000/svg">
<path d="M2.79744 10.6677L5.31692 13.1871C5.15255 13.3573 4.95594 13.4931 4.73855 13.5864C4.52116 13.6798 4.28736 13.729 4.05077 13.731C3.81418 13.7331 3.57955 13.688 3.36057 13.5984C3.1416 13.5088 2.94265 13.3765 2.77536 13.2092C2.60806 13.0419 2.47575 12.843 2.38616 12.624C2.29657 12.405 2.25149 12.1704 2.25354 11.9338C2.2556 11.6972 2.30475 11.4634 2.39813 11.246C2.49152 11.0286 2.62726 10.832 2.79744 10.6677ZM10.6971 15.4117L10.0681 16.0407L0 5.9726L0.628979 5.34362L1.61076 5.48349C2.2825 5.57971 3.11549 5.3748 3.46116 5.02913L6.92233 1.56885C7.92682 0.583261 9.2798 0.0340912 10.687 0.0407707C12.0943 0.0474502 13.442 0.609439 14.4371 1.60452C15.4322 2.59961 15.9942 3.94731 16.0008 5.35456C16.0075 6.76181 15.4583 8.11479 14.4727 9.11927L11.0116 12.5804C10.6659 12.9261 10.461 13.7591 10.5572 14.4308L10.6971 15.4117Z" fill="#DBD9D9"/>
</svg>
