<svg width="20" height="19" viewBox="0 0 20 19" fill="none" xmlns="http://www.w3.org/2000/svg">
<path fill-rule="evenodd" clip-rule="evenodd" d="M14.8234 12.9048C16.0704 11.2971 16.6581 9.27482 16.4669 7.24925C16.2758 5.22367 15.3201 3.34701 13.7944 2.00104C12.2687 0.655069 10.2875 -0.0590965 8.25387 0.00383158C6.22027 0.0667597 4.28703 0.902055 2.84743 2.33978C1.40659 3.77851 0.568564 5.7125 0.504132 7.74765C0.4397 9.78279 1.15371 11.7659 2.50066 13.2929C3.84761 14.8199 5.72613 15.7758 7.75341 15.9659C9.78068 16.1559 11.8041 15.5658 13.4114 14.3158L13.4544 14.3608L17.6964 18.6038C17.7893 18.6967 17.8996 18.7704 18.021 18.8207C18.1424 18.871 18.2725 18.8968 18.4039 18.8968C18.5353 18.8968 18.6654 18.871 18.7868 18.8207C18.9082 18.7704 19.0185 18.6967 19.1114 18.6038C19.2043 18.5109 19.278 18.4006 19.3283 18.2792C19.3786 18.1578 19.4045 18.0277 19.4045 17.8963C19.4045 17.7649 19.3786 17.6348 19.3283 17.5134C19.278 17.392 19.2043 17.2817 19.1114 17.1888L14.8684 12.9468C14.8538 12.9324 14.8388 12.9184 14.8234 12.9048ZM12.7474 3.75478C13.312 4.31026 13.7611 4.97203 14.0686 5.70192C14.3762 6.43181 14.5362 7.21537 14.5394 8.0074C14.5427 8.79944 14.389 9.58428 14.0874 10.3166C13.7858 11.049 13.3422 11.7144 12.7821 12.2745C12.2221 12.8345 11.5567 13.2782 10.8243 13.5798C10.0919 13.8814 9.30709 14.035 8.51505 14.0318C7.72302 14.0286 6.93946 13.8686 6.20957 13.561C5.47968 13.2534 4.81791 12.8044 4.26243 12.2398C3.15235 11.1115 2.53309 9.59023 2.53954 8.0074C2.54598 6.42458 3.17761 4.90843 4.29684 3.78919C5.41608 2.66996 6.93223 2.03833 8.51505 2.03188C10.0979 2.02544 11.6191 2.6447 12.7474 3.75478Z" fill="#7E7F7F"/>
</svg>
